<svg width="24" height="24" viewBox="0 0 24 24" fill="none" xmlns="http://www.w3.org/2000/svg">
<path d="M19 6C17.9 6 17 6.9 17 8V14.8C16.4 15.4 16 16.2 16 17C16 18.7 17.3 20 19 20C20.7 20 22 18.7 22 17C22 16.1 21.6 15.3 21 14.8V8C21 6.9 20.1 6 19 6ZM19 7C19.5 7 20 7.4 20 8V9H18V8C18 7.4 18.5 7 19 7ZM15 20.3C14.1 20.7 13.2 21 12.3 21C10.1 21 7.89999 19 5.59999 19C4.39999 19 3.19999 19.3 1.89999 19.7V17.7C3.19999 17.3 4.39999 17 5.69999 17C7.89999 17 10.1 19 12.4 19C13.3 19 14.2 18.7 15.1 18.3V20.3M12.3 17C13.2 17 14.1 16.7 15 16.3V14.3C14.3 14.6 13.7 14.8 13 15V5C13 4.4 13.4 4 14 4H16.8C16.4 2.8 15.3 2 14 2C12.3 2 11 3.3 11 5V6H5.99999V5C5.99999 4.4 6.39999 4 6.99999 4H9.79999C9.39999 2.8 8.29999 2 6.99999 2C5.29999 2 3.99999 3.3 3.99999 5V13.2C3.29999 13.3 2.69999 13.5 1.99999 13.8V15.8C3.19999 15.3 4.39999 15 5.69999 15C7.89999 15 10.1 17 12.3 17ZM5.99999 8H11V10H5.99999V8ZM5.99999 12H11V14.8C9.29999 14.3 7.69999 13.2 5.99999 13V12Z" fill="white"/>
</svg>
