<svg width="24" height="25" viewBox="0 0 24 25" fill="none" xmlns="http://www.w3.org/2000/svg">
<path d="M3 5.08696C3 4.48696 3.4 4.08696 4 4.08696H5C5.6 4.08696 6 4.48696 6 5.08696C6 5.68696 5.6 6.08696 5 6.08696H4C3.4 6.08696 3 5.68696 3 5.08696ZM4 13.087C4 12.487 4.4 12.087 5 12.087H6C6.6 12.087 7 12.487 7 13.087C7 13.687 6.6 14.087 6 14.087H5C4.4 14.087 4 13.687 4 13.087ZM4 16.087C3.4 16.087 3 16.487 3 17.087C3 17.687 3.4 18.087 4 18.087H9C9.6 18.087 10 17.687 10 17.087C10 16.487 9.6 16.087 9 16.087H4ZM18 5.08696C18 4.48696 18.4 4.08696 19 4.08696H21C21.6 4.08696 22 4.48696 22 5.08696C22 5.68696 21.6 6.08696 21 6.08696H19C18.4 6.08696 18 5.68696 18 5.08696ZM7 20.087C6.4 20.087 6 20.487 6 21.087C6 21.687 6.4 22.087 7 22.087H11C11.6 22.087 12 21.687 12 21.087C12 20.487 11.6 20.087 11 20.087H7ZM3 10.087C2.4 10.087 2 9.68696 2 9.08696C2 8.48696 2.4 8.08696 3 8.08696H12C13.1 8.08696 14 7.18696 14 6.08696C14 4.98696 13.1 4.08696 12 4.08696C11.4 4.08696 10.9 4.28696 10.6 4.68696C10.2 5.08696 9.6 5.08696 9.2 4.68696C8.8 4.28696 8.8 3.68696 9.2 3.28696C9.9 2.58696 10.9 2.08696 12 2.08696C14.2 2.08696 16 3.88696 16 6.08696C16 8.28696 14.2 10.087 12 10.087H3ZM19 12.087C19.6 12.087 20 11.687 20 11.087C20 10.487 19.6 10.087 19 10.087C18.7 10.087 18.5 10.187 18.3 10.387C17.9 10.787 17.3 10.787 16.9 10.387C16.5 9.98696 16.5 9.38696 16.9 8.98696C17.4 8.38696 18.2 8.08696 19 8.08696C20.7 8.08696 22 9.38696 22 11.087C22 12.787 20.7 14.087 19 14.087H10C9.4 14.087 9 13.687 9 13.087C9 12.487 9.4 12.087 10 12.087H19ZM18 18.087H13C12.4 18.087 12 17.687 12 17.087C12 16.487 12.4 16.087 13 16.087H18C19.7 16.087 21 17.387 21 19.087C21 20.787 19.7 22.087 18 22.087C17.2 22.087 16.4 21.787 15.9 21.187C15.5 20.787 15.5 20.187 15.9 19.787C16.3 19.387 16.9 19.387 17.3 19.787C17.5 19.987 17.7 20.087 18 20.087C18.6 20.087 19 19.687 19 19.087C19 18.487 18.6 18.087 18 18.087Z" fill="white"/>
</svg>
